<?xml version="1.0" encoding="utf-8"?>
<!-- Generator: Adobe Illustrator 26.5.0, SVG Export Plug-In . SVG Version: 6.00 Build 0)  -->
<svg version="1.1" id="Lager_1" xmlns="http://www.w3.org/2000/svg" xmlns:xlink="http://www.w3.org/1999/xlink" x="0px" y="0px"
	 viewBox="0 0 243 193" style="enable-background:new 0 0 243 193;" xml:space="preserve">
<style type="text/css">
	.st0{fill:#D40005;}
	.st1{fill:#FFFFFF;}
	.st2{fill:#0D0015;}
</style>
<rect width="243" height="193"/>
<path class="st0" d="M238.9,136.68c-8.25,36.64-58.75,59.33-125.56,44.29S-0.95,124.03,7.3,87.39s69.1-54.15,135.91-39.11
	S247.15,100.04,238.9,136.68z"/>
<path class="st0" d="M89.2,60.63c-3.69-2.88-38.17,7.33-34.91,3.17L70.64,9.84c3.25-4.16,8.93-5.2,12.62-2.32l31.07,45.32
	C89.2,60.63,92.45,56.47,89.2,60.63"/>
<path class="st0" d="M182.74,77.68c-0.71-3.94-28.52-17.02-24.08-17.82l41.11-25.14c4.44-0.8,8.66,1.76,9.37,5.69L203.2,87
	C182.74,77.68,187.18,76.87,182.74,77.68"/>
<ellipse transform="matrix(0.433 -0.9014 0.9014 0.433 -32.0594 125.3418)" class="st1" cx="83.6" cy="88.15" rx="12.5" ry="17"/>
<ellipse transform="matrix(0.3061 -0.952 0.952 0.3061 19.1038 234.2717)" class="st2" cx="170.26" cy="104.03" rx="23.37" ry="21.95"/>
<ellipse transform="matrix(0.9876 -0.157 0.157 0.9876 -13.4738 27.8798)" class="st1" cx="169.73" cy="99.22" rx="17" ry="10.01"/>
<ellipse transform="matrix(0.3061 -0.952 0.952 0.3061 -32.0528 199.0251)" class="st1" cx="120.5" cy="121.5" rx="3.5" ry="7.5"/>
</svg>
