<?xml version="1.0" encoding="utf-8"?>
<!-- Generator: Adobe Illustrator 26.5.0, SVG Export Plug-In . SVG Version: 6.00 Build 0)  -->
<svg version="1.1" id="Lager_1" xmlns="http://www.w3.org/2000/svg" xmlns:xlink="http://www.w3.org/1999/xlink" x="0px" y="0px"
	 viewBox="0 0 434 227" style="enable-background:new 0 0 434 227;" xml:space="preserve">
<style type="text/css">
	.st0{fill:#D40005;}
	.st1{fill:#FFFFFF;}
	.st2{fill:#0D0015;}
</style>
<rect width="434" height="227"/>
<path class="st0" d="M238.9,136.68c-8.25,36.64-58.75,59.33-125.56,44.29S-0.95,124.03,7.3,87.39s69.1-54.15,135.91-39.11
	S247.15,100.04,238.9,136.68z"/>
<path class="st0" d="M89.2,60.63c-3.69-2.88-38.17,7.33-34.91,3.17L70.64,9.84c3.25-4.16,8.93-5.2,12.62-2.32l31.07,45.32
	C89.2,60.63,92.45,56.47,89.2,60.63"/>
<path class="st0" d="M182.74,77.68c-0.71-3.94-28.52-17.02-24.08-17.82l41.11-25.14c4.44-0.8,8.66,1.76,9.37,5.69L203.2,87
	C182.74,77.68,187.18,76.87,182.74,77.68"/>
<ellipse transform="matrix(0.433 -0.9014 0.9014 0.433 -32.0594 125.3418)" class="st1" cx="83.6" cy="88.15" rx="12.5" ry="17"/>
<ellipse transform="matrix(0.3061 -0.952 0.952 0.3061 19.1038 234.2717)" class="st2" cx="170.26" cy="104.03" rx="23.37" ry="21.95"/>
<ellipse transform="matrix(0.9876 -0.157 0.157 0.9876 -13.4738 27.8798)" class="st1" cx="169.73" cy="99.22" rx="17" ry="10.01"/>
<ellipse transform="matrix(0.3061 -0.952 0.952 0.3061 -32.0528 199.0251)" class="st1" cx="120.5" cy="121.5" rx="3.5" ry="7.5"/>
<g>
	<path class="st1" d="M232.01,155.94c2.4-1.96,4.08-5.48,7.48-14.28c2.84-7.32,3.12-10.4,1.88-12.12c2.68-0.8,5.92-0.68,7.76-0.24
		c3.6,0.88,4.64,3.76,7.04,13c1.24,4.8,2.88,13.32,6.08,13.32c-2.56,2.2-5.24,2.4-6.68,2.4c-4.4,0-5.68-2.08-6.64-5.6
		c-0.24-0.84-0.48-1.88-0.76-3.08c-0.56,2.32-1.88,3.36-3.24,3.36c-0.8,0-1.6-0.28-2.32-0.84c-1.36,4.16-3.12,6.2-6.36,6.2
		C234.69,158.06,233.09,157.7,232.01,155.94z M247.61,146.82c-0.52-2.6-1.12-5.68-1.68-9.04c-0.56,3.28-1.24,6.36-1.96,9.16
		C245.17,146.94,246.45,146.9,247.61,146.82z"/>
	<path class="st1" d="M263.33,157.3c0.4-9.56,0.04-17.16-0.24-19.84c1.28,0.56,3.44,1.04,4.88,1.04c2.64,0,4.4-1.6,7.6-1.6
		c4.16,0,5.48,2.44,5.48,4.64c0,2.64-1.48,4.6-4.28,4.6c-0.88,0-1.96-0.16-2.8-0.72c0.64-1.6,0.88-4.64-0.92-4.64
		c-0.72,0-1.64,0.36-2.2,1.32c-0.08,4.64,0.12,9.28,0.24,13.92c0.04,1.4-2.32,2-4.44,2C265.41,158.02,264.17,157.78,263.33,157.3z"
		/>
	<path class="st1" d="M284.89,150.7v-3.64c0-1-0.04-2.48-0.08-4.32h-2.4c-0.84-0.4-0.68-5.2,1-5.2h1.28v-0.48
		c-0.12-4.44,5.64-5.32,7.88-4.72c-0.08,1.48-0.16,2.88-0.2,5.2h3.12c0.84,0.4,0.68,5.2-1,5.2h-2.16v2.08
		c0,7.48,0.8,10.56,3.36,10.64c-1.72,2.16-4.6,2.52-6.08,2.52C285.57,157.98,284.89,154.66,284.89,150.7z"/>
	<path class="st1" d="M298.09,152.14c0.16-9.4,0.32-12.48-1.44-14.16c1.72-0.84,3.48-0.96,4.68-0.92c3.12,0.04,4.72,1.48,4.56,5.44
		c-0.08,1.84-0.08,3.64-0.12,5.48c-0.08,4.32-0.12,7.4,1.68,8.28c-1.32,1.64-3.52,1.92-4.72,1.92
		C299.61,158.18,298.01,156.5,298.09,152.14z M301.97,128.27c2.44,0,4.44,1.32,4.44,3.92c0,2.6-2,3.92-4.44,3.92
		c-2.44,0-4.44-1.32-4.44-3.92C297.53,129.59,299.53,128.27,301.97,128.27z"/>
	<path class="st1" d="M309.49,157.3c0.12-2.4,0.24-7.6,0.24-12.16l-0.04-2.4h-1.84c-0.84-0.4-0.68-5.2,1-5.2h0.72v-2.16
		c0-3.96,1.88-7.28,5.92-7.28c2.8,0,5.36,1.48,5.48,4.92c-0.36-0.2-0.96-0.4-1.64-0.4c-1.56,0-2.32,1.28-2.32,4.24v0.68h3.52
		c0.84,0.4,0.68,5.2-1,5.2h-2.48c0.04,4.6,0.12,10.2,0.2,13.28c0.04,1.4-2.32,2-4.44,2C311.57,158.02,310.33,157.78,309.49,157.3z
		 M325.97,137.06c3.12,0.04,4.72,1.48,4.56,5.44c-0.08,1.84-0.08,3.64-0.12,5.48c-0.08,4.32-0.12,7.4,1.68,8.28
		c-1.32,1.64-3.52,1.92-4.72,1.92c-3.12,0-4.72-1.68-4.64-6.04c0.16-9.4,0.32-12.48-1.44-14.16
		C323.01,137.15,324.77,137.02,325.97,137.06z M326.61,128.27c2.44,0,4.44,1.32,4.44,3.92c0,2.6-2,3.92-4.44,3.92
		s-4.44-1.32-4.44-3.92C322.17,129.59,324.17,128.27,326.61,128.27z"/>
	<path class="st1" d="M333.05,147.5c0-5.84,3.96-10.6,11.36-10.6c6,0,8.92,2.4,8.92,5.56c0,2.44-1.72,4.76-4.84,4.76
		c-1.04,0-2.36-0.2-3.4-0.88c0.8-1.92,1.28-6.36-1.28-6.36c-2,0-2.96,2.64-2.96,5.88c0,5.04,3.28,6.68,6.76,6.68
		c2.28,0,4.64-0.68,6.2-1.6c-1.44,5.28-5.24,7.24-9.72,7.24C337.01,158.18,333.05,153.42,333.05,147.5z"/>
	<path class="st1" d="M355.25,147.5c0-5.84,3.88-10.6,11.28-10.6c6.4,0,8.96,3.56,8.96,6.52c0,3.64-3.88,6.8-11.72,6.28
		c0.88,1.84,2.72,2.96,5.96,2.96c1.76,0,3.92-0.24,6.28-1.6c-1.44,5.28-5.24,7.12-9.72,7.12
		C359.21,158.18,355.25,153.42,355.25,147.5z M363.09,146.86c2.88-0.04,4.76-1.6,4.76-4.12c0-1.44-0.64-2.76-1.96-2.76
		c-1.88,0-2.84,2.64-2.84,5.88C363.05,146.18,363.05,146.54,363.09,146.86z"/>
	<path class="st1" d="M378.53,157.3c0.4-9.56,0.04-17.16-0.24-19.84c1.28,0.56,3.44,1.04,4.88,1.04c2.64,0,4.4-1.6,7.6-1.6
		c4.16,0,5.48,2.44,5.48,4.64c0,2.64-1.48,4.6-4.28,4.6c-0.88,0-1.96-0.16-2.8-0.72c0.64-1.6,0.88-4.64-0.92-4.64
		c-0.72,0-1.64,0.36-2.2,1.32c-0.08,4.64,0.12,9.28,0.24,13.92c0.04,1.4-2.32,2-4.44,2C380.61,158.02,379.37,157.78,378.53,157.3z"
		/>
	<path class="st1" d="M179.59,201.42c1.88,3.6,4.68,4.8,8.08,4.8c3.24,0,4.44-1.04,4.44-2.24c0-4-13.12-1.56-13.12-11.36
		c0-5.4,4.36-8.72,12.2-8.72c8.08,0,10.96,3.32,10.96,7.16c0,3.4-1.92,5.2-5.16,5.2c-1.24,0-2.8-0.28-4.04-1.2
		c0.96-2.68,1.52-6.88-1.52-6.88c-1.88,0-3.04,1.88-3.04,4.2c0,7.44,13.52,4,13.52,12.44c0,4.88-3.76,8.6-12.2,8.6
		C182.03,213.42,177.52,210.42,179.59,201.42z"/>
	<path class="st1" d="M203.75,204.02c0-6.36,3.72-12.12,10.48-12.12c3.28,0,4.88,1.24,7.24,1.24c1,0,2-0.12,3.16-0.68
		c-0.16,2.68-0.24,5.08-0.24,7.24c0,7.64,0.04,10.72,1.84,12.4c-1.68,0.84-3.44,0.96-4.64,0.92c-2.6-0.04-4.2-1.04-4.52-3.64
		c-1.68,3.12-4.24,3.8-6.08,3.8C209.23,213.18,203.75,212.58,203.75,204.02z M213.79,207.94c1.76,0,3.28-2.56,3.28-7.32v-4.76
		c-4.2-1.16-5.44,3.28-5.44,7.76C211.63,206.82,212.55,207.94,213.79,207.94z"/>
	<path class="st1" d="M228.27,212.3c0.12-2.4,0.24-7.6,0.24-12.16l-0.04-2.4h-1.84c-0.84-0.4-0.68-5.2,1-5.2h0.72v-2.16
		c0-3.96,1.88-7.28,5.92-7.28c2.8,0,5.36,1.48,5.48,4.92c-0.36-0.2-0.96-0.4-1.64-0.4c-1.56,0-2.32,1.28-2.32,4.24v0.68h3.52
		c0.84,0.4,0.68,5.2-1,5.2h-2.48c0.04,4.6,0.12,10.2,0.2,13.28c0.04,1.4-2.32,2-4.44,2C230.35,213.02,229.11,212.78,228.27,212.3z"
		/>
	<path class="st1" d="M239.87,202.5c0-5.84,3.88-10.6,11.28-10.6c6.4,0,8.96,3.56,8.96,6.52c0,3.64-3.88,6.8-11.72,6.28
		c0.88,1.84,2.72,2.96,5.96,2.96c1.76,0,3.92-0.24,6.28-1.6c-1.44,5.28-5.24,7.12-9.72,7.12
		C243.83,213.18,239.87,208.42,239.87,202.5z M247.71,201.86c2.88-0.04,4.76-1.6,4.76-4.12c0-1.44-0.64-2.76-1.96-2.76
		c-1.88,0-2.84,2.64-2.84,5.88C247.67,201.18,247.67,201.54,247.71,201.86z"/>
	<path class="st1" d="M275.55,212.34c-1.4,0-2.92,0.28-4.44,0.84c0.52-10.24,0.12-17.24-0.2-19.88c-0.04-1.36,2.68-1.96,5.12-1.96
		c1.4,0,2.84,0.24,3.8,0.72c0,9.4,0.08,12.64,0.24,17.52c3.52,0.72,6.24-1.2,6.24-4.92c0-3.36-2.84-5.48-5.28-5.32
		c-0.2,0-0.24-0.32-0.04-0.4c2.88-0.76,4.44-2.84,4.44-4.96c0-3.72-3.96-5.04-8.4-5.04c-3.28,0-6.6,1.12-8.08,3.2
		c0.6-5.24,5.44-8.24,12.88-8.24c7,0,12.48,2.88,12.48,7.84c0,3.84-2.96,6.2-7.2,7.04c6.52,0.64,8.8,3.08,8.8,6.88
		c0,7.36-7.96,7.88-10.6,7.8C280.99,213.3,278.11,212.34,275.55,212.34z"/>
	<path class="st1" d="M298.63,207.02c0-2.4,0.32-5.28,0.32-8.64c0-5.4-0.32-12.76-2.16-14.2c1.8-0.84,3.68-0.96,4.96-0.92
		c3.36,0.04,4.96,1.48,4.92,4.24c-0.08,2.92-0.12,9.76-0.12,15.48c0,4.32,0.08,7.4,2,8.28c-1.4,1.64-3.76,1.92-5.08,1.92
		C300.15,213.18,298.55,211.5,298.63,207.02z"/>
	<path class="st1" d="M309.51,204.02c0-6.36,3.72-12.12,10.48-12.12c3.28,0,4.88,1.24,7.24,1.24c1,0,2-0.12,3.16-0.68
		c-0.16,2.68-0.24,5.08-0.24,7.24c0,7.64,0.04,10.72,1.84,12.4c-1.68,0.84-3.44,0.96-4.64,0.92c-2.6-0.04-4.2-1.04-4.52-3.64
		c-1.68,3.12-4.24,3.8-6.08,3.8C314.99,213.18,309.51,212.58,309.51,204.02z M319.55,207.94c1.76,0,3.28-2.56,3.28-7.32v-4.76
		c-4.2-1.16-5.44,3.28-5.44,7.76C317.39,206.82,318.31,207.94,319.55,207.94z"/>
	<path class="st1" d="M333.47,204.54c1.56,2.12,3.92,2.8,6.8,2.8c2.72,0,3.72-0.56,3.72-1.44c0-2.28-11.04-0.64-11.04-7.72
		c0-3.88,3.68-6.28,10.28-6.28c6.8,0,9.44,2.4,9.44,5.16c0,2.44-1.84,3.76-4.56,3.76c-1.04,0-2.36-0.2-3.4-0.88
		c0.8-1.92,1.28-4.96-1.28-4.96c-1.6,0-2.56,1.36-2.56,3.04c0,5.36,12.04,2.88,12.04,8.96c0,3.52-3.84,6.2-10.92,6.2
		C335.51,213.18,331.71,211.02,333.47,204.54z"/>
	<path class="st1" d="M356.43,205.7v-3.64c0-1-0.04-2.48-0.08-4.32h-2.4c-0.84-0.4-0.68-5.2,1-5.2h1.28v-0.48
		c-0.12-4.44,5.64-5.32,7.88-4.72c-0.08,1.48-0.16,2.88-0.2,5.2h3.12c0.84,0.4,0.68,5.2-1,5.2h-2.16v2.08
		c0,7.48,0.8,10.56,3.36,10.64c-1.72,2.16-4.6,2.52-6.08,2.52C357.11,212.98,356.43,209.66,356.43,205.7z"/>
	<path class="st1" d="M369.63,207.14c0.16-9.4,0.32-12.48-1.44-14.16c1.72-0.84,3.48-0.96,4.68-0.92c3.12,0.04,4.72,1.48,4.56,5.44
		c-0.08,1.84-0.08,3.64-0.12,5.48c-0.08,4.32-0.12,7.4,1.68,8.28c-1.32,1.64-3.52,1.92-4.72,1.92
		C371.15,213.18,369.55,211.5,369.63,207.14z M373.51,183.27c2.44,0,4.44,1.32,4.44,3.92s-2,3.92-4.44,3.92
		c-2.44,0-4.44-1.32-4.44-3.92S371.07,183.27,373.51,183.27z"/>
	<path class="st1" d="M393.51,207.54v-4.72c0-5.2-0.84-7.56-4.96-6.32c-0.12,4.96,0.12,9.56,0.24,14.52c0.04,1.4-2.32,2-4.44,2
		c-1.24,0-2.48-0.24-3.32-0.72c0.12-3.04,0.16-5.92,0.16-8.48c0-5.44-0.2-9.52-0.4-11.36c1.28,0.56,2.68,0.68,3.68,0.68
		c3.16,0,5.16-1.24,8.44-1.24c6.76,0,8.04,4.72,8.04,11.08c0,4.32,0,7.4,1.84,8.28c-1.32,1.64-3.48,1.92-4.68,1.92
		C394.99,213.18,393.51,211.5,393.51,207.54z"/>
	<path class="st1" d="M403.67,217.62c0-2.8,2.76-4.36,5.92-4.56c-2.28-0.4-5.84-2.16-5.84-9.04c0-6.36,3.72-12.12,10.48-12.12
		c3.28,0,4.88,1.24,7.24,1.24c1,0,2-0.12,3.16-0.68c-0.4,9.88,0.04,17.36,0.08,17.76c0.88,8.4-5.28,11.76-13.04,11.76
		C407.31,221.98,403.67,220.86,403.67,217.62z M413.03,218.02c2.96,0,4.56-2.72,4.08-8.68c-1.6,3-4,3.76-5.84,3.84
		C409.63,216.46,411.03,218.02,413.03,218.02z M413.79,207.94c1.76,0,3.28-2.56,3.28-7.32v-4.76c-4.2-1.16-5.44,3.28-5.44,7.76
		C411.63,206.82,412.55,207.94,413.79,207.94z"/>
</g>
</svg>
