<?xml version="1.0" encoding="utf-8"?>
<!-- Generator: Adobe Illustrator 26.5.0, SVG Export Plug-In . SVG Version: 6.00 Build 0)  -->
<svg version="1.1" id="Lager_1" xmlns="http://www.w3.org/2000/svg" xmlns:xlink="http://www.w3.org/1999/xlink" x="0px" y="0px"
	 viewBox="0 0 434 58" style="enable-background:new 0 0 434 58;" xml:space="preserve">
<style type="text/css">
	.st0{stroke:#000000;stroke-miterlimit:10;}
	.st1{fill:#FFFFFF;}
</style>
<rect x="-11.5" y="-122.5" class="st0" width="491" height="361"/>
<g>
	<path class="st1" d="M9.67,40.94c2.4-1.96,4.08-5.48,7.48-14.28c2.84-7.32,3.12-10.4,1.88-12.12c2.68-0.8,5.92-0.68,7.76-0.24
		c3.6,0.88,4.64,3.76,7.04,13c1.24,4.8,2.88,13.32,6.08,13.32c-2.56,2.2-5.24,2.4-6.68,2.4c-4.4,0-5.68-2.08-6.64-5.6
		c-0.24-0.84-0.48-1.88-0.76-3.08c-0.56,2.32-1.88,3.36-3.24,3.36c-0.8,0-1.6-0.28-2.32-0.84c-1.36,4.16-3.12,6.2-6.36,6.2
		C12.35,43.06,10.75,42.7,9.67,40.94z M25.27,31.82c-0.52-2.6-1.12-5.68-1.68-9.04c-0.56,3.28-1.24,6.36-1.96,9.16
		C22.83,31.94,24.11,31.9,25.27,31.82z"/>
	<path class="st1" d="M40.99,42.3c0.4-9.56,0.04-17.16-0.24-19.84c1.28,0.56,3.44,1.04,4.88,1.04c2.64,0,4.4-1.6,7.6-1.6
		c4.16,0,5.48,2.44,5.48,4.64c0,2.64-1.48,4.6-4.28,4.6c-0.88,0-1.96-0.16-2.8-0.72c0.64-1.6,0.88-4.64-0.92-4.64
		c-0.72,0-1.64,0.36-2.2,1.32c-0.08,4.64,0.12,9.28,0.24,13.92c0.04,1.4-2.32,2-4.44,2C43.07,43.02,41.83,42.78,40.99,42.3z"/>
	<path class="st1" d="M62.55,35.7v-3.64c0-1-0.04-2.48-0.08-4.32h-2.4c-0.84-0.4-0.68-5.2,1-5.2h1.28v-0.48
		c-0.12-4.44,5.64-5.32,7.88-4.72c-0.08,1.48-0.16,2.88-0.2,5.2h3.12c0.84,0.4,0.68,5.2-1,5.2h-2.16v2.08
		c0,7.48,0.8,10.56,3.36,10.64c-1.72,2.16-4.6,2.52-6.08,2.52C63.23,42.98,62.55,39.66,62.55,35.7z"/>
	<path class="st1" d="M75.75,37.14c0.16-9.4,0.32-12.48-1.44-14.16c1.72-0.84,3.48-0.96,4.68-0.92c3.12,0.04,4.72,1.48,4.56,5.44
		c-0.08,1.84-0.08,3.64-0.12,5.48c-0.08,4.32-0.12,7.4,1.68,8.28c-1.32,1.64-3.52,1.92-4.72,1.92
		C77.27,43.18,75.67,41.5,75.75,37.14z M79.63,13.27c2.44,0,4.44,1.32,4.44,3.92c0,2.6-2,3.92-4.44,3.92
		c-2.44,0-4.44-1.32-4.44-3.92C75.19,14.59,77.19,13.27,79.63,13.27z"/>
	<path class="st1" d="M87.15,42.3c0.12-2.4,0.24-7.6,0.24-12.16l-0.04-2.4h-1.84c-0.84-0.4-0.68-5.2,1-5.2h0.72v-2.16
		c0-3.96,1.88-7.28,5.92-7.28c2.8,0,5.36,1.48,5.48,4.92c-0.36-0.2-0.96-0.4-1.64-0.4c-1.56,0-2.32,1.28-2.32,4.24v0.68h3.52
		c0.84,0.4,0.68,5.2-1,5.2h-2.48c0.04,4.6,0.12,10.2,0.2,13.28c0.04,1.4-2.32,2-4.44,2C89.23,43.02,87.99,42.78,87.15,42.3z
		 M103.62,22.06c3.12,0.04,4.72,1.48,4.56,5.44c-0.08,1.84-0.08,3.64-0.12,5.48c-0.08,4.32-0.12,7.4,1.68,8.28
		c-1.32,1.64-3.52,1.92-4.72,1.92c-3.12,0-4.72-1.68-4.64-6.04c0.16-9.4,0.32-12.48-1.44-14.16
		C100.67,22.15,102.42,22.02,103.62,22.06z M104.26,13.27c2.44,0,4.44,1.32,4.44,3.92c0,2.6-2,3.92-4.44,3.92s-4.44-1.32-4.44-3.92
		C99.83,14.59,101.83,13.27,104.26,13.27z"/>
	<path class="st1" d="M110.71,32.5c0-5.84,3.96-10.6,11.36-10.6c6,0,8.92,2.4,8.92,5.56c0,2.44-1.72,4.76-4.84,4.76
		c-1.04,0-2.36-0.2-3.4-0.88c0.8-1.92,1.28-6.36-1.28-6.36c-2,0-2.96,2.64-2.96,5.88c0,5.04,3.28,6.68,6.76,6.68
		c2.28,0,4.64-0.68,6.2-1.6c-1.44,5.28-5.24,7.24-9.72,7.24C114.67,43.18,110.71,38.42,110.71,32.5z"/>
	<path class="st1" d="M132.91,32.5c0-5.84,3.88-10.6,11.28-10.6c6.4,0,8.96,3.56,8.96,6.52c0,3.64-3.88,6.8-11.72,6.28
		c0.88,1.84,2.72,2.96,5.96,2.96c1.76,0,3.92-0.24,6.28-1.6c-1.44,5.28-5.24,7.12-9.72,7.12C136.87,43.18,132.91,38.42,132.91,32.5z
		 M140.75,31.86c2.88-0.04,4.76-1.6,4.76-4.12c0-1.44-0.64-2.76-1.96-2.76c-1.88,0-2.84,2.64-2.84,5.88
		C140.71,31.18,140.71,31.54,140.75,31.86z"/>
	<path class="st1" d="M156.19,42.3c0.4-9.56,0.04-17.16-0.24-19.84c1.28,0.56,3.44,1.04,4.88,1.04c2.64,0,4.4-1.6,7.6-1.6
		c4.16,0,5.48,2.44,5.48,4.64c0,2.64-1.48,4.6-4.28,4.6c-0.88,0-1.96-0.16-2.8-0.72c0.64-1.6,0.88-4.64-0.92-4.64
		c-0.72,0-1.64,0.36-2.2,1.32c-0.08,4.64,0.12,9.28,0.24,13.92c0.04,1.4-2.32,2-4.44,2C158.27,43.02,157.03,42.78,156.19,42.3z"/>
	<path class="st1" d="M183.63,31.42c1.88,3.6,4.68,4.8,8.08,4.8c3.24,0,4.44-1.04,4.44-2.24c0-4-13.12-1.56-13.12-11.36
		c0-5.4,4.36-8.72,12.2-8.72c8.08,0,10.96,3.32,10.96,7.16c0,3.4-1.92,5.2-5.16,5.2c-1.24,0-2.8-0.28-4.04-1.2
		c0.96-2.68,1.52-6.88-1.52-6.88c-1.88,0-3.04,1.88-3.04,4.2c0,7.44,13.52,4,13.52,12.44c0,4.88-3.76,8.6-12.2,8.6
		C186.07,43.42,181.55,40.42,183.63,31.42z"/>
	<path class="st1" d="M207.79,34.02c0-6.36,3.72-12.12,10.48-12.12c3.28,0,4.88,1.24,7.24,1.24c1,0,2-0.12,3.16-0.68
		c-0.16,2.68-0.24,5.08-0.24,7.24c0,7.64,0.04,10.72,1.84,12.4c-1.68,0.84-3.44,0.96-4.64,0.92c-2.6-0.04-4.2-1.04-4.52-3.64
		c-1.68,3.12-4.24,3.8-6.08,3.8C213.27,43.18,207.79,42.58,207.79,34.02z M217.82,37.94c1.76,0,3.28-2.56,3.28-7.32v-4.76
		c-4.2-1.16-5.44,3.28-5.44,7.76C215.67,36.82,216.58,37.94,217.82,37.94z"/>
	<path class="st1" d="M232.31,42.3c0.12-2.4,0.24-7.6,0.24-12.16l-0.04-2.4h-1.84c-0.84-0.4-0.68-5.2,1-5.2h0.72v-2.16
		c0-3.96,1.88-7.28,5.92-7.28c2.8,0,5.36,1.48,5.48,4.92c-0.36-0.2-0.96-0.4-1.64-0.4c-1.56,0-2.32,1.28-2.32,4.24v0.68h3.52
		c0.84,0.4,0.68,5.2-1,5.2h-2.48c0.04,4.6,0.12,10.2,0.2,13.28c0.04,1.4-2.32,2-4.44,2C234.38,43.02,233.15,42.78,232.31,42.3z"/>
	<path class="st1" d="M243.91,32.5c0-5.84,3.88-10.6,11.28-10.6c6.4,0,8.96,3.56,8.96,6.52c0,3.64-3.88,6.8-11.72,6.28
		c0.88,1.84,2.72,2.96,5.96,2.96c1.76,0,3.92-0.24,6.28-1.6c-1.44,5.28-5.24,7.12-9.72,7.12C247.86,43.18,243.91,38.42,243.91,32.5z
		 M251.74,31.86c2.88-0.04,4.76-1.6,4.76-4.12c0-1.44-0.64-2.76-1.96-2.76c-1.88,0-2.84,2.64-2.84,5.88
		C251.7,31.18,251.7,31.54,251.74,31.86z"/>
	<path class="st1" d="M279.58,42.34c-1.4,0-2.92,0.28-4.44,0.84c0.52-10.24,0.12-17.24-0.2-19.88c-0.04-1.36,2.68-1.96,5.12-1.96
		c1.4,0,2.84,0.24,3.8,0.72c0,9.4,0.08,12.64,0.24,17.52c3.52,0.72,6.24-1.2,6.24-4.92c0-3.36-2.84-5.48-5.28-5.32
		c-0.2,0-0.24-0.32-0.04-0.4c2.88-0.76,4.44-2.84,4.44-4.96c0-3.72-3.96-5.04-8.4-5.04c-3.28,0-6.6,1.12-8.08,3.2
		c0.6-5.24,5.44-8.24,12.88-8.24c7,0,12.48,2.88,12.48,7.84c0,3.84-2.96,6.2-7.2,7.04c6.52,0.64,8.8,3.08,8.8,6.88
		c0,7.36-7.96,7.88-10.6,7.8C285.02,43.3,282.14,42.34,279.58,42.34z"/>
	<path class="st1" d="M302.67,37.02c0-2.4,0.32-5.28,0.32-8.64c0-5.4-0.32-12.76-2.16-14.2c1.8-0.84,3.68-0.96,4.96-0.92
		c3.36,0.04,4.96,1.48,4.92,4.24c-0.08,2.92-0.12,9.76-0.12,15.48c0,4.32,0.08,7.4,2,8.28c-1.4,1.64-3.76,1.92-5.08,1.92
		C304.18,43.18,302.58,41.5,302.67,37.02z"/>
	<path class="st1" d="M313.54,34.02c0-6.36,3.72-12.12,10.48-12.12c3.28,0,4.88,1.24,7.24,1.24c1,0,2-0.12,3.16-0.68
		c-0.16,2.68-0.24,5.08-0.24,7.24c0,7.64,0.04,10.72,1.84,12.4c-1.68,0.84-3.44,0.96-4.64,0.92c-2.6-0.04-4.2-1.04-4.52-3.64
		c-1.68,3.12-4.24,3.8-6.08,3.8C319.02,43.18,313.54,42.58,313.54,34.02z M323.58,37.94c1.76,0,3.28-2.56,3.28-7.32v-4.76
		c-4.2-1.16-5.44,3.28-5.44,7.76C321.42,36.82,322.34,37.94,323.58,37.94z"/>
	<path class="st1" d="M337.5,34.54c1.56,2.12,3.92,2.8,6.8,2.8c2.72,0,3.72-0.56,3.72-1.44c0-2.28-11.04-0.64-11.04-7.72
		c0-3.88,3.68-6.28,10.28-6.28c6.8,0,9.44,2.4,9.44,5.16c0,2.44-1.84,3.76-4.56,3.76c-1.04,0-2.36-0.2-3.4-0.88
		c0.8-1.92,1.28-4.96-1.28-4.96c-1.6,0-2.56,1.36-2.56,3.04c0,5.36,12.04,2.88,12.04,8.96c0,3.52-3.84,6.2-10.92,6.2
		C339.54,43.18,335.75,41.02,337.5,34.54z"/>
	<path class="st1" d="M360.46,35.7v-3.64c0-1-0.04-2.48-0.08-4.32h-2.4c-0.84-0.4-0.68-5.2,1-5.2h1.28v-0.48
		c-0.12-4.44,5.64-5.32,7.88-4.72c-0.08,1.48-0.16,2.88-0.2,5.2h3.12c0.84,0.4,0.68,5.2-1,5.2h-2.16v2.08
		c0,7.48,0.8,10.56,3.36,10.64c-1.72,2.16-4.6,2.52-6.08,2.52C361.14,42.98,360.46,39.66,360.46,35.7z"/>
	<path class="st1" d="M373.66,37.14c0.16-9.4,0.32-12.48-1.44-14.16c1.72-0.84,3.48-0.96,4.68-0.92c3.12,0.04,4.72,1.48,4.56,5.44
		c-0.08,1.84-0.08,3.64-0.12,5.48c-0.08,4.32-0.12,7.4,1.68,8.28c-1.32,1.64-3.52,1.92-4.72,1.92
		C375.18,43.18,373.58,41.5,373.66,37.14z M377.54,13.27c2.44,0,4.44,1.32,4.44,3.92c0,2.6-2,3.92-4.44,3.92
		c-2.44,0-4.44-1.32-4.44-3.92C373.1,14.59,375.1,13.27,377.54,13.27z"/>
	<path class="st1" d="M397.54,37.54v-4.72c0-5.2-0.84-7.56-4.96-6.32c-0.12,4.96,0.12,9.56,0.24,14.52c0.04,1.4-2.32,2-4.44,2
		c-1.24,0-2.48-0.24-3.32-0.72c0.12-3.04,0.16-5.92,0.16-8.48c0-5.44-0.2-9.52-0.4-11.36c1.28,0.56,2.68,0.68,3.68,0.68
		c3.16,0,5.16-1.24,8.44-1.24c6.76,0,8.04,4.72,8.04,11.08c0,4.32,0,7.4,1.84,8.28c-1.32,1.64-3.48,1.92-4.68,1.92
		C399.02,43.18,397.54,41.5,397.54,37.54z"/>
	<path class="st1" d="M407.7,47.62c0-2.8,2.76-4.36,5.92-4.56c-2.28-0.4-5.84-2.16-5.84-9.04c0-6.36,3.72-12.12,10.48-12.12
		c3.28,0,4.88,1.24,7.24,1.24c1,0,2-0.12,3.16-0.68c-0.4,9.88,0.04,17.36,0.08,17.76c0.88,8.4-5.28,11.76-13.04,11.76
		C411.34,51.98,407.7,50.86,407.7,47.62z M417.06,48.02c2.96,0,4.56-2.72,4.08-8.68c-1.6,3-4,3.76-5.84,3.84
		C413.66,46.46,415.06,48.02,417.06,48.02z M417.82,37.94c1.76,0,3.28-2.56,3.28-7.32v-4.76c-4.2-1.16-5.44,3.28-5.44,7.76
		C415.66,36.82,416.58,37.94,417.82,37.94z"/>
</g>
</svg>
